HIERARCHY
ROOT Hips
{
	OFFSET 0.000000 0.000000 0.000000
	CHANNELS 6 Xposition Yposition Zposition Zrotation Yrotation Xrotation 
	JOINT LHipJoint
	{
		OFFSET 0.000000 0.000000 0.000000
		CHANNELS 3 Zrotation Yrotation Xrotation
		JOINT LeftUpLeg
		{
			OFFSET 1.363060 -1.794630 0.839290
			CHANNELS 3 Zrotation Yrotation Xrotation
			JOINT LeftLeg
			{
				OFFSET 2.448110 -6.726130 0.000000
				CHANNELS 3 Zrotation Yrotation Xrotation
				JOINT LeftFoot
				{
					OFFSET 2.562200 -7.039590 0.000000
					CHANNELS 3 Zrotation Yrotation Xrotation
					JOINT LeftToeBase
					{
						OFFSET 0.157640 -0.433110 2.322550
						CHANNELS 3 Zrotation Yrotation Xrotation
						End Site
						{
							OFFSET 0.000000 0.000000 0.000000
						}
					}
				}
			}
		}
	}
	JOINT RHipJoint
	{
		OFFSET 0.000000 0.000000 0.000000
		CHANNELS 3 Zrotation Yrotation Xrotation
		JOINT RightUpLeg
		{
			OFFSET -1.305520 -1.794630 0.839290
			CHANNELS 3 Zrotation Yrotation Xrotation
			JOINT RightLeg
			{
				OFFSET -2.542530 -6.985550 0.000000
				CHANNELS 3 Zrotation Yrotation Xrotation
				JOINT RightFoot
				{
					OFFSET -2.568260 -7.056230 0.000000
					CHANNELS 3 Zrotation Yrotation Xrotation
					JOINT RightToeBase
					{
						OFFSET -0.164730 -0.452590 2.363150
						CHANNELS 3 Zrotation Yrotation Xrotation
						End Site
						{
							OFFSET 0.000000 0.000000 0.000000
						}
					}
				}
			}
		}
	}
}
MOTION
Frames: 27
Frame Time: 0.008333
-6.741314 16.985517 1.998581 -46.465968 86.744563 -31.587449 -8.556475 0.474976 -2.185239 -18.314237 12.314144 -37.865817 -3.287562 0.144239 13.635247 1.430045 8.405049 -1.027144 1.359600 -0.000000 -4.310000 11.153880 -1.577195 -3.599742 6.387964 -8.675572 -9.779316 1.463446 -2.512301 36.158472 0.615733 7.358058 -1.347059 0.598100 0.000000 -72.768500
-6.635667 17.009828 1.960937 -40.413985 86.847146 -25.612462 -8.752114 0.486378 -2.219355 -18.406170 12.355562 -37.160681 -3.287779 0.126185 13.504893 1.459653 8.500556 -1.539799 1.276900 -0.000000 -4.425399 11.124429 -1.547431 -3.678674 5.748747 -8.959524 -10.872923 1.189941 -2.720702 38.457021 0.642528 7.974982 0.935176 0.944099 -0.000000 -74.528600
-6.531734 17.032611 1.921049 -36.889342 86.915349 -22.155181 -8.892715 0.488958 -2.272772 -18.480119 12.473716 -36.476845 -3.291787 0.096116 13.334923 1.470764 8.514412 -1.983788 1.194301 0.000001 -4.506900 11.146429 -1.522442 -3.730301 5.209809 -9.176331 -11.983710 0.930373 -2.913358 40.689998 0.634715 8.527905 3.183375 1.340700 -0.000001 -75.673400
-6.429330 17.053695 1.879537 -35.459455 86.937607 -20.785724 -8.975328 0.501375 -2.336074 -18.534274 12.664406 -35.828379 -3.302530 0.062606 13.135765 1.465913 8.449546 -2.356376 1.114400 -0.000000 -4.533600 11.216015 -1.481496 -3.758825 4.764669 -9.321912 -13.094362 0.682799 -3.081059 42.851613 0.595586 8.972422 5.307799 1.754400 0.000000 -76.235401
-6.328332 17.073152 1.837136 -35.413600 86.931739 -20.795937 -9.018079 0.526221 -2.402772 -18.577752 12.905192 -35.211077 -3.319582 0.029227 12.912294 1.448001 8.318329 -2.660087 1.039400 -0.000000 -4.497500 11.312073 -1.420284 -3.771383 4.392232 -9.406374 -14.192567 0.449495 -3.223812 44.938446 0.530241 9.255368 7.224630 2.141100 0.000000 -76.295800
-6.228700 17.091129 1.794275 -36.714450 86.903069 -22.149626 -9.020778 0.563766 -2.469476 -18.602922 13.173836 -34.624519 -3.341350 -0.002384 12.681284 1.419303 8.128546 -2.910381 0.968601 -0.000001 -4.401100 11.433151 -1.338763 -3.773521 4.093592 -9.440262 -15.267750 0.232380 -3.344858 46.944577 0.443505 9.312979 8.865465 2.450600 -0.000000 -75.948599
-6.130346 17.107920 1.751541 -39.210350 86.868081 -24.697640 -8.987970 0.609961 -2.533127 -18.607484 13.438426 -34.053117 -3.364840 -0.033571 12.447639 1.383523 7.899741 -3.123244 0.902100 0.000000 -4.257300 11.574955 -1.241572 -3.771411 3.859016 -9.440787 -16.311873 0.032798 -3.450650 48.866301 0.339390 9.091440 10.185235 2.638100 -0.000001 -75.306900
-6.033334 17.123815 1.709198 -43.262078 86.830408 -28.802451 -8.910586 0.660011 -2.593095 -18.579534 13.670623 -33.482734 -3.386656 -0.067055 12.219259 1.343822 7.648429 -3.318139 0.838900 0.000000 -4.084000 11.747275 -1.134593 -3.769391 3.691138 -9.423413 -17.318013 -0.148063 -3.548902 50.696778 0.219718 8.548585 11.162056 2.670100 0.000000 -74.451500
-5.937640 17.139087 1.667437 -49.588079 86.794390 -35.182654 -8.777601 0.702231 -2.651940 -18.507737 13.842974 -32.895231 -3.402422 -0.108740 12.002570 1.302151 7.388566 -3.511048 0.778400 0.000000 -3.902000 11.962850 -1.032436 -3.770078 3.595076 -9.406820 -18.282452 -0.305648 -3.652250 52.425966 0.084223 7.663619 11.793752 2.531700 -0.000000 -73.407700
-5.843309 17.153988 1.626301 -59.330244 86.766807 -44.978903 -8.591287 0.708811 -2.717399 -18.387171 13.928255 -32.267674 -3.405495 -0.169258 11.804509 1.258131 7.128282 -3.710069 0.720200 0.000000 -3.730701 12.222454 -0.968802 -3.774940 3.572003 -9.416201 -19.206934 -0.428470 -3.782989 54.035610 -0.069190 6.439727 12.101161 2.228700 0.000001 -72.245000
-5.750242 17.168646 1.585597 -74.080465 86.749014 -59.777122 -8.403491 0.626589 -2.801089 -18.232928 13.902514 -31.583764 -3.386868 -0.262479 11.643284 1.207463 6.859275 -3.916355 0.663000 -0.000000 -3.583000 12.478674 -1.007671 -3.786454 3.610584 -9.488290 -20.104269 -0.496944 -3.975069 55.504815 -0.242464 4.905444 12.115147 1.784100 0.000001 -70.944800
-5.658672 17.183139 1.545443 -92.978147 86.728468 -78.722078 -8.357267 0.424308 -2.898019 -18.105912 13.746348 -30.806073 -3.341902 -0.387617 11.479312 1.154296 6.614360 -4.114817 0.609500 -0.000000 -3.474000 12.590299 -1.177456 -3.818445 3.622933 -9.632628 -20.974159 -0.513317 -4.232746 56.840060 -0.433895 3.126871 11.877552 1.237300 -0.000000 -69.403800
-5.568281 17.197392 1.505393 -112.510452 86.659213 -98.299930 -8.550511 0.154303 -2.976057 -18.038305 13.501985 -29.985436 -3.282323 -0.512289 11.299548 1.107859 6.412045 -4.321903 0.556800 -0.000000 -3.400200 12.452294 -1.407338 -3.875700 3.562430 -9.792722 -21.809421 -0.516840 -4.496048 58.064042 -0.640515 1.177482 11.451531 0.630300 0.000000 -67.700601
-5.479094 17.211302 1.465324 -127.912885 86.547663 -113.756016 -8.885450 -0.063168 -3.008017 -17.994743 13.225729 -29.166321 -3.226888 -0.602208 11.065665 1.081301 6.286802 -4.551354 0.506100 0.000000 -3.359400 12.153778 -1.552244 -3.951286 3.447541 -9.876255 -22.580261 -0.555927 -4.683710 59.197748 -0.859037 -0.855015 10.900363 0.007700 0.000000 -65.797701
-5.390988 17.224709 1.425106 -138.379854 86.388188 -124.283949 -9.208339 -0.188399 -3.003627 -17.919655 12.946834 -28.376944 -3.181344 -0.657681 10.793398 1.072147 6.219368 -4.803047 0.457300 -0.000000 -3.343200 11.850050 -1.575015 -4.027838 3.350062 -9.857181 -23.284767 -0.629445 -4.787496 60.220430 -1.086003 -2.887627 10.282148 -0.592700 0.000000 -63.706100
-5.303847 17.237410 1.384607 -145.209277 86.158880 -131.174393 -9.461463 -0.249229 -2.982692 -17.798998 12.669264 -27.621843 -3.142455 -0.693945 10.510208 1.071551 6.175700 -5.062833 0.410500 0.000000 -3.339400 11.604702 -1.517868 -4.093090 3.302286 -9.754208 -23.939301 -0.714247 -4.838318 61.103965 -1.314375 -4.838054 9.646411 -1.141800 -0.000000 -61.472800
-5.217505 17.249208 1.343842 -149.726121 85.855149 -135.744880 -9.651093 -0.277611 -2.956995 -17.643462 12.394374 -26.903424 -3.107090 -0.721205 10.236002 1.072761 6.130868 -5.317153 0.365800 0.000001 -3.335500 11.415551 -1.423938 -4.140921 3.301527 -9.585311 -24.560035 -0.793902 -4.860866 61.833359 -1.534111 -6.629594 9.032395 -1.620200 -0.000000 -59.170200
-5.131849 17.259973 1.302877 -152.812481 85.487359 -138.872017 -9.796640 -0.291641 -2.931028 -17.467889 12.126065 -26.230131 -3.074323 -0.743332 9.985356 1.071858 6.068322 -5.559126 0.323199 -0.000000 -3.320000 11.265034 -1.317720 -4.167959 3.336048 -9.358486 -25.159365 -0.861190 -4.867003 62.404059 -1.734694 -8.199724 8.469044 -2.017500 -0.000000 -56.899600
-5.046763 17.269558 1.261821 -155.022369 85.069584 -141.106302 -9.913437 -0.299801 -2.906180 -17.283881 11.864595 -25.606434 -3.043969 -0.761546 9.766727 1.067259 5.981215 -5.786705 0.282599 -0.000001 -3.284900 11.138582 -1.210885 -4.173277 3.392170 -9.078002 -25.744454 -0.913465 -4.862027 62.816469 -1.906687 -9.502066 7.970263 -2.329500 0.000000 -54.755500
-4.962142 17.277946 1.220867 -156.694095 84.614808 -142.784345 -10.011456 -0.305535 -2.881959 -17.099000 11.607502 -25.035899 -3.016121 -0.775938 9.587699 1.058724 5.867706 -6.003473 0.243700 0.000000 -3.226000 11.026313 -1.108488 -4.156773 3.459230 -8.746415 -26.318936 -0.950279 -4.847947 63.073461 -2.043336 -10.510682 7.538343 -2.556600 0.000000 -52.832400
-4.877924 17.285113 1.180187 -158.034454 84.132099 -144.112957 -10.096422 -0.310452 -2.857343 -16.917379 11.347548 -24.517536 -2.990491 -0.786569 9.452926 1.047075 5.731401 -6.216117 0.205699 0.000000 -3.143600 10.922184 -1.012342 -4.119889 3.528927 -8.367500 -26.883433 -0.971811 -4.825856 63.178888 -2.140988 -11.218961 7.164261 -2.702100 -0.000001 -51.199300
-4.794078 17.291128 1.139936 -159.174510 83.627466 -145.224869 -10.171615 -0.315358 -2.831041 -16.740254 11.074879 -24.045728 -2.966411 -0.793652 9.364458 1.033834 5.579810 -6.433544 0.168100 -0.000001 -3.042600 10.822427 -0.922725 -4.064965 3.595060 -7.945896 -27.435500 -0.978493 -4.796444 63.137073 -2.199154 -11.638225 6.831042 -2.771400 -0.000000 -49.893500
-4.710572 17.296069 1.100262 -160.188105 83.103926 -146.196078 -10.238791 -0.320887 -2.801830 -16.566675 10.778079 -23.611382 -2.942843 -0.797625 9.321406 1.020871 5.422857 -6.664654 0.130200 0.000000 -2.931200 10.724676 -0.839157 -3.995048 3.654058 -7.486822 -27.971220 -0.970723 -4.760291 62.952147 -2.220173 -11.795220 6.518072 -2.772400 -0.000000 -48.919700
-4.627381 17.300025 1.061246 -161.117918 82.562815 -147.072618 -10.298941 -0.327690 -2.769014 -16.394519 10.447551 -23.203803 -2.918690 -0.799029 9.320623 1.009987 5.270609 -6.917225 0.091300 -0.000000 -2.819600 10.627353 -0.760789 -3.913433 3.704044 -6.995560 -28.485308 -0.948911 -4.717891 62.628113 -2.208717 -11.729196 6.205045 -2.715300 -0.000000 -48.252501
-4.544523 17.303117 1.022944 -161.984829 82.004964 -147.879129 -10.352853 -0.336014 -2.731874 -16.221589 10.075934 -22.811262 -2.892885 -0.798456 9.356164 1.002796 5.132908 -7.196028 0.051100 0.000000 -2.718900 10.529217 -0.686578 -3.822853 3.744182 -6.476294 -28.971989 -0.913639 -4.669385 62.169089 -2.171027 -11.487363 5.875160 -2.612600 0.000000 -47.847200
-4.462001 17.305427 0.985325 -162.795307 81.430531 -148.625806 -10.401118 -0.346302 -2.690763 -16.045444 9.661115 -22.423491 -2.864724 -0.796468 9.421047 1.000189 5.015781 -7.502858 0.009300 0.000000 -2.638600 10.429384 -0.615552 -3.725731 3.775422 -5.932374 -29.426746 -0.865587 -4.614945 61.579644 -2.114328 -11.121376 5.518074 -2.478500 0.000000 -47.646100
-4.379754 17.307045 0.948359 -163.550576 80.840212 -149.316578 -10.444284 -0.358746 -2.646522 -15.864932 9.205442 -22.032483 -2.833935 -0.793566 9.507384 1.002426 4.922144 -7.835672 -0.034201 0.000000 -2.586400 10.327215 -0.546889 -3.623549 3.798747 -5.365451 -29.846137 -0.805722 -4.554574 60.864846 -2.046059 -10.682386 5.130933 -2.327600 -0.000000 -47.586500
